<svg width="84" height="84" viewBox="0 0 84 84" fill="none" xmlns="http://www.w3.org/2000/svg">
<path d="M36.5 40C40.6421 40 44 36.866 44 33C44 29.134 40.6421 26 36.5 26C32.3579 26 29 29.134 29 33C29 36.866 32.3579 40 36.5 40Z" stroke="#A6A6A6" stroke-width="2.75" stroke-linecap="round" stroke-linejoin="round"/>
<path d="M25 59V55.3333C25 53.3884 25.7726 51.5232 27.1479 50.1479C28.5232 48.7726 30.3884 48 32.3333 48H39.6667C41.6116 48 43.4769 48.7726 44.8521 50.1479C46.2274 51.5232 47 53.3884 47 55.3333V59" stroke="#A6A6A6" stroke-width="2.75" stroke-linecap="round" stroke-linejoin="round"/>
<path d="M49 26C50.7163 26.398 52.2376 27.3019 53.324 28.5693C54.4103 29.8368 55 31.3956 55 33C55 34.6044 54.4103 36.1632 53.324 37.4307C52.2376 38.6981 50.7163 39.602 49 40" stroke="#A6A6A6" stroke-width="2.75" stroke-linecap="round" stroke-linejoin="round"/>
<path d="M58 59V55.2393C57.9915 53.5793 57.4965 51.969 56.5921 50.6596C55.6877 49.3501 54.4247 48.415 53 48" stroke="#A6A6A6" stroke-width="2.75" stroke-linecap="round" stroke-linejoin="round"/>
</svg>
